<?xml version="1.0" encoding="utf-8"?>
<!-- Generator: Adobe Illustrator 16.0.0, SVG Export Plug-In . SVG Version: 6.00 Build 0)  -->
<!DOCTYPE svg PUBLIC "-//W3C//DTD SVG 1.1//EN" "http://www.w3.org/Graphics/SVG/1.1/DTD/svg11.dtd">
<svg version="1.1" id="Layer_1" xmlns="http://www.w3.org/2000/svg" xmlns:xlink="http://www.w3.org/1999/xlink" x="0px" y="0px"
	 width="100px" height="100px" viewBox="0 0 100 100" enable-background="new 0 0 100 100" xml:space="preserve">
<path fill="#D91C5C" d="M69.111,23.025c0,0-3.731-7.188-9.167-7.987c-5.415-0.799-14.494,0.518-19.736,4.978
	c-5.242,4.443-5.611,16.807-2.31,19.558c3.28,2.756,3.47,4.366,2.5,5.176c-0.984,0.782-3.219,3.814-14.164-2.15
	c-10.92-5.959-13.508-8.098-15.544-2.668c-2.056,5.43-1.337,41.716,28.636,44.732c29.956,3.031,38.979-14.949,31.742-28.637
	c-4.371-8.257-8.274-9.321-5.33-15.478c0,0,3.163,0.733,6.003-2.464c2.85-3.186,8.737-0.821,11.681-1.615
	c2.942-0.821,6.769-1.968,5.793-5.7l0.717-0.893c0,0,0.165-1.417-0.017-2.48c-0.165-1.07-1.422-2.045-2.491-1.869
	c-1.06,0.176-6.482,2.034-9.956,1.334c-3.461-0.717-6.135-3.732-7.38-3.473C70.088,23.389,68.936,23.742,69.111,23.025z"/>
</svg>
